<svg width="402" height="69" xmlns="http://www.w3.org/2000/svg">
    <path fill-rule="evenodd" fill="#c7a996" d="m299.40029,7.645086c-2.41,0.85 -2.574,2.661 -0.659,7.258c0.704,1.691 1.804,4.35 2.443,5.909c0.638,1.558 2.177,5.271 3.418,8.25c1.241,2.979 3.479,8.454 4.973,12.166c1.493,3.713 3.551,8.775 4.573,11.25c1.021,2.475 2.128,5.172 2.46,5.993c1.021,2.523 1.927,3.203 4.062,3.051c1.983,-0.142 3.07,-1.285 3.052,-3.21c-0.011,-1.235 0.076,-0.995 -3.116,-8.584c-0.367,-0.871 -1.336,-3.232 -2.155,-5.247c-0.819,-2.015 -1.593,-3.89 -1.719,-4.166c-0.408,-0.891 -3.852,-9.271 -4.659,-11.337c-1.216,-3.11 -5.754,-14.2 -7.366,-18c-1.444,-3.405 -2.76,-4.232 -5.307,-3.333m36.161,1.087c-1.068,0.224 -2.451,1.491 -2.7,2.472c-0.467,1.837 0.121,3.035 3.455,7.039c1.238,1.486 2.625,3.169 3.084,3.739c1.152,1.433 3.494,4.288 8.75,10.67c3.193,3.877 2.919,3.543 4.899,5.971c0.906,1.112 1.932,2.359 2.278,2.772c0.347,0.412 1.58,1.912 2.741,3.333c1.161,1.421 3.21,3.922 4.554,5.557c1.345,1.635 2.839,3.462 3.321,4.06c4.311,5.343 5.061,6.158 6.123,6.656c2.549,1.195 5.25,-0.479 5.25,-3.253c0,-1.044 -0.687,-2.377 -2.094,-4.06c-0.556,-0.665 -1.78,-2.147 -2.72,-3.293c-0.94,-1.146 -2.189,-2.657 -2.776,-3.359c-0.985,-1.177 -1.773,-2.143 -3.993,-4.901c-0.458,-0.569 -2.183,-2.661 -3.833,-4.649c-1.65,-1.987 -3.186,-3.852 -3.413,-4.144c-0.226,-0.292 -0.761,-0.943 -1.188,-1.447c-0.427,-0.504 -1.179,-1.418 -1.671,-2.03c-0.492,-0.613 -1.645,-2.028 -2.562,-3.145c-0.916,-1.117 -2.079,-2.536 -2.583,-3.153c-0.504,-0.617 -2.079,-2.533 -3.5,-4.257c-1.421,-1.724 -2.996,-3.637 -3.5,-4.251c-4.573,-5.571 -4.633,-5.635 -5.615,-6.01c-0.768,-0.293 -1.768,-0.43 -2.307,-0.317m-184.828,0.109c-15.568,1.943 -20.171,19.858 -6.833,26.6c0.945,0.478 6.28,2.294 8.222,2.799c13.859,3.607 16.131,5.088 15.375,10.027c-0.536,3.505 -2.669,5.416 -7.394,6.625c-2.602,0.667 -3.495,1.553 -3.479,3.458c0.02,2.401 1.412,3.559 3.776,3.142c9.985,-1.763 15.664,-8.76 13.833,-17.045c-1.468,-6.644 -5.901,-9.59 -19,-12.628c-9.008,-2.089 -12.171,-4.344 -12.165,-8.671c0.006,-3.881 2.862,-6.519 8.391,-7.751c3.016,-0.672 4.015,-3.918 1.832,-5.949c-0.687,-0.639 -1.244,-0.771 -2.558,-0.607m7.065,0.195c-0.919,0.733 -1.432,2.767 -0.99,3.925c0.615,1.607 1.214,1.922 4.427,2.336c1.969,0.253 5.109,0.976 6.581,1.515c2.596,0.95 4.414,-0.221 4.407,-2.84c-0.004,-1.636 -0.373,-2.202 -1.873,-2.872c-3.849,-1.721 -11.421,-2.966 -12.552,-2.064m214.817,-0.151c-0.747,0.239 -1.453,0.833 -1.802,1.517c-0.473,0.926 -0.521,28.291 -0.052,29.279c1.108,2.334 5.278,2.357 6.478,0.036c0.436,-0.844 0.357,-28.718 -0.083,-29.44c-0.754,-1.237 -2.936,-1.906 -4.541,-1.392m-317.397,0.275c-1.823,0.627 -2.744,2.912 -1.887,4.681c0.479,0.99 0.947,1.271 3.155,1.897c8.032,2.275 12.915,9.077 13.274,18.49c0.4,10.474 -5.161,18.647 -14,20.578c-3.446,0.752 -4.077,4.765 -0.994,6.32c1.33,0.671 5.349,-0.338 8.967,-2.25c15.939,-8.424 17.449,-34.604 2.635,-45.671c-3.493,-2.61 -9.249,-4.698 -11.15,-4.045m131.515,0.052c-0.857,0.397 -1.711,1.299 -1.919,2.026c-0.224,0.781 -0.222,47.358 0.002,48.164c0.696,2.509 4.566,2.884 6.238,0.606c0.342,-0.466 0.668,-46.762 0.342,-48.581c-0.321,-1.795 -2.914,-3.027 -4.663,-2.215m20.833,-0.064c-0.724,0.39 -1.233,0.906 -1.641,1.664l-0.359,0.666l-0.051,23.25c-0.038,17.179 -0.001,23.485 0.142,24.148c0.658,3.057 5.113,3.608 6.423,0.795l0.4,-0.859l0,-23.584l0,-23.583l-0.403,-0.864c-0.741,-1.592 -3.041,-2.425 -4.511,-1.633m56,-0.086c-0.886,0.278 -1.702,1.103 -2.075,2.1c-0.346,0.925 -0.347,0.975 -0.302,24.455l0.044,23.528l0.362,0.677c1.202,2.245 4.725,2.298 6.097,0.091l0.374,-0.601l0,-24.012l0,-24.013l-0.459,-0.694c-0.881,-1.331 -2.599,-1.982 -4.041,-1.531m-221.014,0.416c-13.85,4.097 -20.974,18.351 -16.977,33.967c2.227,8.703 8.965,15.507 17.359,17.53c3.526,0.85 5.377,-0.196 5.381,-3.044c0.004,-1.826 -1.009,-2.717 -3.832,-3.372c-16.823,-3.898 -17.644,-33.282 -1.073,-38.379c0.728,-0.224 1.746,-0.531 2.262,-0.682c2.106,-0.616 3.052,-2.593 2.163,-4.52c-0.842,-1.824 -2.549,-2.309 -5.283,-1.5m47.725,-0.093c-0.811,0.261 -1.57,0.826 -2.062,1.537l-0.482,0.694l0,23.694l0,23.693l0.469,0.708c1.302,1.969 4.593,1.969 5.895,0l0.469,-0.708l0,-23.693l0,-23.693l-0.472,-0.681c-0.899,-1.298 -2.536,-1.963 -3.817,-1.551m9.956,0.026c-2.122,1.242 -2.556,3.799 -0.939,5.541c0.865,0.932 0.939,0.943 6.139,0.943c7.253,0.001 9.376,0.561 11.749,3.103c2.18,2.335 1.874,7.868 -0.552,9.964c-2.408,2.081 -4.451,2.55 -11.814,2.712c-5.305,0.117 -5.157,0.084 -5.994,1.349c-0.934,1.41 -0.56,3.55 0.787,4.51c0.429,0.305 0.841,0.332 6.375,0.408c9.815,0.136 12.853,1.11 14.676,4.706l0.74,1.458l-0.005,2.187c-0.015,6.487 -3.691,8.436 -15.911,8.436l-5.258,0l-0.627,0.516c-1.78,1.468 -1.733,4.169 0.097,5.501l0.704,0.512l6.416,-0.079c8.678,-0.107 10.532,-0.395 14.334,-2.229c4.7,-2.267 6.905,-6.113 6.913,-12.054c0.007,-5.955 -2.828,-9.978 -8.664,-12.293l-1.093,-0.434l1.095,-0.578c3.04,-1.605 5.174,-4.684 5.681,-8.195c1.199,-8.318 -3.143,-14.153 -11.733,-15.764c-1.874,-0.351 -12.584,-0.531 -13.116,-0.22m117.523,0.273c-1.892,1.345 -1.884,4.447 0.014,5.762l0.648,0.449l3.574,0.005c7.761,0.012 12.296,1.581 16.249,5.621c7.267,7.429 6.961,21.142 -0.627,28.1c-4.066,3.729 -8.383,5.107 -15.996,5.107l-3.457,0l-0.599,0.526c-1.976,1.735 -1.456,5.33 0.855,5.91c1.839,0.462 11.426,-0.222 13.983,-0.996c23.251,-7.046 23.954,-41.769 1,-49.414c-3.436,-1.144 -6.37,-1.525 -11.752,-1.526l-3.252,0l-0.64,0.456m75.8,8.113c-0.478,0.208 -1.74,1.503 -1.74,1.786c0,0.132 -4.886,11.638 -6.344,14.939c-0.456,1.033 -0.982,2.266 -1.169,2.741c-0.187,0.474 -0.85,2.029 -1.474,3.455c-2.457,5.62 -3.208,7.357 -3.83,8.862c-0.618,1.491 -1.884,4.459 -2.784,6.524c-0.495,1.137 -0.578,2.628 -0.188,3.38c0.975,1.875 3.874,2.467 5.476,1.118c0.658,-0.553 1.592,-2.598 4.756,-10.41l0.926,-2.286l8.941,-0.047c10.133,-0.054 9.621,0.015 10.533,-1.422c0.987,-1.556 0.39,-3.773 -1.259,-4.683c-0.44,-0.243 -1.386,-0.282 -7.875,-0.325c-4.057,-0.028 -7.375,-0.099 -7.375,-0.158c0,-0.06 0.648,-1.65 1.439,-3.534c0.792,-1.884 1.754,-4.175 2.138,-5.092c1.022,-2.439 2.35,-5.544 3.386,-7.917c1.627,-3.726 1.691,-4.651 0.41,-5.912c-1.21,-1.191 -2.696,-1.572 -3.967,-1.019m41.093,9.587c-1.143,0.348 -2.159,1.19 -2.489,2.064c-0.36,0.954 -0.235,29.594 0.133,30.283c1.244,2.328 5.201,2.428 6.358,0.162c0.452,-0.886 0.561,-29.626 0.117,-30.69c-0.571,-1.368 -2.624,-2.274 -4.119,-1.819m-197.453,25.006c-2.017,1.23 -2.076,4.273 -0.108,5.613c1.761,1.199 6.939,2.671 12.548,3.567c2.726,0.436 4.215,-0.289 4.64,-2.258c0.46,-2.133 -1.044,-3.749 -3.81,-4.096c-2.885,-0.361 -6.539,-1.303 -9.429,-2.429c-2.094,-0.816 -3,-0.909 -3.841,-0.397"/>
</svg>
