<svg version="1" xmlns="http://www.w3.org/2000/svg" width="933.333" height="933.333" viewBox="0 0 700.000000 700.000000"><path d="M152 138.6c-33.3 38.8-60.5 70.9-60.5 71.4 0 1 52 34 54.8 34.8 1.4.3 22.7-20.4 85.7-83.4 46.2-46.1 83.8-83.9 83.7-84-.2-.3-101.2-9.4-102.7-9.4-.3 0-27.7 31.8-61 70.6zM435 72.5c-25.6 2.3-47.5 4.4-48.8 4.6-1.9.3 11.2 13.9 81.7 84.3 63.1 63 84.4 83.7 85.8 83.4 2.9-.8 54.8-33.8 54.8-34.8 0-.5-27.2-32.7-60.5-71.5-55.9-65.1-60.7-70.5-63.5-70.4-1.6.1-23.9 2.1-49.5 4.4zM267.5 166l-82 82 7.1 7.1 7 7 74.7-43c41.1-23.7 75.2-43.1 75.7-43.1s34.5 19.4 75.6 43.2l74.6 43.1 7.1-7.1 7.2-7.2-82-82c-45.1-45.1-82.2-82-82.5-82-.3 0-37.4 36.9-82.5 82z"/><path d="M279 229.6c-38.8 22.3-70.6 40.7-70.7 40.8-.1.1 26.4 26.7 58.9 59.1l59.1 59-4.5-8.5c-2.5-4.7-12.7-23.8-22.6-42.6-10-18.7-18.2-34.5-18.2-35 0-1.1 66.1-60.1 68.2-60.9 1.2-.5 67.8 58.2 68.6 60.4.2.5-8.5 17.6-19.3 38-10.7 20.5-20.9 40-22.6 43.4-2.9 5.8.4 2.8 56-52.8 32.5-32.4 59.1-59.3 59.1-59.6 0-.6-137-80.2-140-81.4-1-.3-29.2 15.4-72 40.1zM90.1 244.2c-6.6 20.7-18.1 60.3-17.9 61.3.3 1.4 246.5 308.2 248 309.1.5.3-36.9-75-83.1-167.3l-84-167.8-27.1-17c-15-9.4-28.9-18-31-19.3l-3.8-2.3-1.1 3.3zM577.7 260.3l-30.8 19.2-84 167.8c-46.2 92.3-83.6 167.6-83.1 167.3 1.5-.9 247.7-307.7 248-309.1.3-1.2-17.3-60.5-18.7-63.2-.5-.9-10.5 4.9-31.4 18z"/><path d="M324.5 278.1c-13.8 12.1-26.1 23.1-27.4 24.4l-2.3 2.3 27.5 51.6 27.5 51.7 27.1-51.6c14.9-28.4 27.1-51.7 27.1-51.9 0-.4-53.1-48.1-53.9-48.4-.4-.1-11.9 9.7-25.6 21.9z"/><path d="M192.5 279.6c-2.2 1.3-4 2.8-4 3.4 0 1.4 160.8 335 161.5 335 .3 0 36.8-75.5 81.1-167.8l80.6-167.7-4.9-2.9-5-2.9-73.4 73.4c-41.3 41.3-74.6 75.3-76.1 77.8l-2.6 4.4-1.9-3.9c-2.1-4.1-148.4-151.5-150.3-151.3-.5 0-2.8 1.2-5 2.5z"/></svg>