<svg xmlns="http://www.w3.org/2000/svg" viewBox="0 0 652 400"><path d="M305.3 234.2l-83.4 116.5c-4.3 6-11.5 9.1-18.7 8.2-8.3-1-19.7-4.1-31.4-12.6-11.8-8.5-18.3-18.3-22-25.8-3.2-6.6-2.5-14.4 1.7-20.4l83.4-116.5c4-5.5 9.2-10.1 15.2-13.3l16.4-8.7c3.3-1.7 6.2-4.1 8.7-6.8 8-9 29.3-32.7 67.3-71l.7-3c.2-.7.7-1.3 1.4-1.4l2.1-.5c.9-.2 1.5-1.1 1.4-2l-.2-2.6c-.1-1.1.7-2 1.8-2 2.5-.1 7.4.7 14.3 5.6 6.9 5 9.2 9.4 9.9 11.8.3 1-.3 2.1-1.4 2.4l-2.5.6c-.9.2-1.5 1.1-1.5 2l.2 2.2c.1.7-.3 1.4-.9 1.8l-2.7 1.6c-24 48.2-39.6 76.1-45.6 86.6-1.9 3.2-3.1 6.8-3.7 10.5l-2.9 18.4c-1 6.4-3.6 12.8-7.6 18.4zM487.7 300l-83.4-116.5c-4-5.5-9.2-10.1-15.2-13.3l-16.4-8.7c-3.3-1.7-6.2-4.1-8.7-6.8-2-2.2-4.8-5.4-8.4-9.4-.6-.6-1.6-.5-2 .3-12.6 24.3-21.2 39.4-25 46.2-1.2 2.2-2.1 4.5-2.5 6.9-.8 5.2-.8 10.6 0 15.8l.1.9c1.1 6.7 3.7 13.1 7.7 18.7l83.4 116.5c4.2 5.9 11.3 9.1 18.5 8.2 8.3-1 19.8-4.1 31.6-12.6s18.3-18.3 22-25.8c3.2-6.6 2.6-14.4-1.7-20.4m-221-208.1l2.5.6c.9.2 1.5 1.1 1.5 2l-.2 2.2c-.1.7.3 1.4.9 1.8l2.7 1.6c4.4 8.9 8.6 17.1 12.4 24.6.4.7 1.3.9 1.9.3 6.3-6.7 13.8-14.7 22.7-23.9.7-.8.8-2 0-2.7-4.5-4.6-9.2-9.4-14.4-14.6l-.7-3c-.1-.7-.7-1.2-1.4-1.4l-2.1-.5c-.9-.2-1.5-1.1-1.4-2l.2-2.6c.1-1.1-.7-2-1.8-2-2.5-.1-7.4.6-14.4 5.6-6.9 5-9.2 9.4-9.9 11.8-.2.9.5 2 1.5 2.2" fill="#fff" stroke="#383838" stroke-width="14"/></svg>
